<?xml version="1.0" standalone="no"?><!DOCTYPE svg PUBLIC "-//W3C//DTD SVG 1.1//EN" "http://www.w3.org/Graphics/SVG/1.1/DTD/svg11.dtd"><svg t="1739280962783" class="icon" viewBox="0 0 1024 1024" version="1.1" xmlns="http://www.w3.org/2000/svg" p-id="18195" xmlns:xlink="http://www.w3.org/1999/xlink" width="128" height="128"><path d="M956.0064 1022.464c37.376 0 67.9936-30.1056 67.9936-66.9696V272.384c0-36.864-30.6176-66.9696-67.9936-66.9696H292.352l266.3424 817.0496h397.312z" fill="#D9D9D9" p-id="18196"></path><path d="M733.4912 829.44L559.9232 1022.464 496.7424 829.44z" fill="#4352B8" p-id="18197"></path><path d="M959.488 488.448v-39.936H766.976v-64.512h-62.464v64.512H581.632v39.936h244.5312c-13.1072 46.08-41.984 89.6-70.144 123.392-49.9712-59.0848-50.176-78.336-50.176-78.336h-51.9168s2.1504 28.7744 72.192 110.8992C703.3856 667.648 686.08 681.472 686.08 681.472l15.9744 49.8688s24.064-20.6848 54.272-52.736c30.208 32.768 69.2224 72.192 119.7056 119.1936l32.768-32.768c-54.0672-49.0496-93.696-87.9616-122.7776-119.1936 39.0144-46.1824 78.6432-104.2432 87.04-157.4912H959.488z" fill="#617D8B" p-id="18198"></path><path d="M69.9392 0.2048C32.5632 0.2048 1.9456 30.8224 1.9456 68.3008v693.248c0 37.376 30.6176 67.9936 67.9936 67.9936h663.6544L467.2512 0.2048h-397.312z" fill="#4F8BF5" p-id="18199"></path><path d="M434.0736 386.56H288.768v60.2112h83.6608c-7.7824 38.2976-40.448 60.2112-83.6608 60.2112-50.9952 0-92.16-41.1648-92.16-92.16s41.1648-92.16 92.16-92.16c22.016 0 41.7792 7.7824 57.4464 20.5824l45.3632-45.3632c-27.648-24.064-63.0784-39.0144-102.8096-39.0144-86.528 0-155.9552 69.4272-155.9552 155.9552S202.3424 570.88 288.768 570.88c78.0288 0 148.8896-56.7296 148.8896-155.9552 0-9.216-1.4336-19.1488-3.584-28.3648z" fill="#FFFFFF" p-id="18200"></path><path d="M549.0688 205.4144h406.9376c37.376 0 67.9936 30.1056 67.9936 66.9696v409.8048L549.0688 205.4144z" fill="#FFFFFF" opacity=".2" p-id="18201"></path></svg>