<svg width="106" height="20" viewBox="0 0 106 20" fill="none" xmlns="http://www.w3.org/2000/svg">
  <path
    d="M68.4528 4.34833H67.209C67.1018 4.34833 66.999 4.3907 66.9229 4.46622C66.8469 4.54173 66.8037 4.64425 66.803 4.75143V16.5996H62.6425V2.90006C62.6433 2.79434 62.6028 2.69248 62.5297 2.61612C62.4566 2.53977 62.3565 2.49496 62.2509 2.49121H61.007C60.8999 2.49197 60.7973 2.53508 60.7218 2.61113C60.6463 2.68719 60.604 2.79001 60.604 2.89719V16.5996H56.4406V4.75143C56.4398 4.64425 56.3967 4.54173 56.3206 4.46622C56.2446 4.3907 56.1418 4.34833 56.0346 4.34833H54.7907C54.6836 4.34833 54.5807 4.3907 54.5047 4.46622C54.4286 4.54173 54.3855 4.64425 54.3848 4.75143V17.973C54.3848 18.1504 54.455 18.3206 54.5802 18.4463C54.7054 18.572 54.8753 18.6431 55.0528 18.6438H68.1735C68.3545 18.6438 68.5281 18.5719 68.656 18.444C68.784 18.316 68.8559 18.1424 68.8559 17.9614V4.75143C68.8551 4.64475 68.8124 4.54266 68.737 4.46723C68.6616 4.39179 68.5595 4.34908 68.4528 4.34833Z"
    fill="black" />
  <path
    d="M37.6186 10.5301H39.1446C39.202 10.5298 39.2587 10.5173 39.3108 10.4933C39.363 10.4694 39.4094 10.4346 39.447 10.3912C39.4846 10.3479 39.5126 10.297 39.5289 10.242C39.5453 10.187 39.5497 10.1292 39.542 10.0723C39.2108 7.48098 39.0957 5.77358 39.0554 4.88965C39.0501 4.78425 39.0038 4.68511 38.9263 4.61351C38.8487 4.54191 38.7462 4.50357 38.6407 4.50671H37.1263C37.0716 4.50664 37.0175 4.5177 36.9672 4.5392C36.9169 4.56071 36.8716 4.59222 36.8339 4.63181C36.7961 4.6714 36.7669 4.71825 36.7479 4.76951C36.7288 4.82076 36.7204 4.87535 36.7232 4.92996C36.7606 5.81965 36.8758 7.55584 37.204 10.1644C37.2148 10.2662 37.2634 10.3603 37.3401 10.428C37.4169 10.4957 37.5163 10.5321 37.6186 10.5301Z"
    fill="black" />
  <path
    d="M48.1655 10.484H49.7635C49.862 10.4828 49.9568 10.4459 50.0303 10.3803C50.1039 10.3147 50.1512 10.2248 50.1637 10.127C50.4891 7.5357 50.6042 5.80814 50.6417 4.94437C50.6444 4.88976 50.636 4.83517 50.617 4.78391C50.5979 4.73266 50.5687 4.68581 50.531 4.64622C50.4933 4.60662 50.4479 4.57512 50.3976 4.55361C50.3474 4.53211 50.2932 4.52105 50.2386 4.52112H48.7414C48.6374 4.52102 48.5374 4.56111 48.4623 4.63301C48.3872 4.70491 48.3427 4.80305 48.3383 4.90694C48.298 5.77071 48.1828 7.51554 47.8459 10.1213C47.8407 10.1665 47.845 10.2124 47.8586 10.2559C47.8722 10.2994 47.8948 10.3396 47.925 10.3738C47.9551 10.408 47.9921 10.4355 48.0335 10.4545C48.075 10.4735 48.1199 10.4835 48.1655 10.484Z"
    fill="black" />
  <path
    d="M50.9842 16.7061C48.5426 16.4182 44.6499 13.3029 44.7305 8.71621V2.90012C44.7305 2.8468 44.72 2.79401 44.6996 2.74476C44.6792 2.6955 44.6493 2.65075 44.6116 2.61305C44.5739 2.57535 44.5291 2.54545 44.4799 2.52504C44.4306 2.50464 44.3778 2.49414 44.3245 2.49414H43.0519C42.9442 2.49414 42.841 2.53691 42.7648 2.61305C42.6887 2.68918 42.6459 2.79245 42.6459 2.90012V8.71621C42.7237 13.3029 38.8338 16.4182 36.3922 16.7061C36.2939 16.7174 36.2033 16.7645 36.1375 16.8383C36.0716 16.912 36.0352 17.0075 36.0352 17.1063V18.3819C36.0353 18.4385 36.0473 18.4945 36.0703 18.5462C36.0934 18.598 36.127 18.6443 36.169 18.6823C36.211 18.7202 36.2605 18.749 36.3144 18.7667C36.3682 18.7843 36.4251 18.7906 36.4814 18.785C38.232 18.6064 40.1755 17.6333 41.6641 16.2109C42.4932 15.4042 43.1752 14.4591 43.6796 13.418C44.1882 14.4602 44.8752 15.4054 45.7094 16.2109C47.1923 17.6505 49.1357 18.6064 50.8921 18.785C50.9485 18.7906 51.0054 18.7843 51.0592 18.7667C51.113 18.749 51.1625 18.7202 51.2045 18.6823C51.2466 18.6443 51.2802 18.598 51.3032 18.5462C51.3263 18.4945 51.3383 18.4385 51.3384 18.3819V17.1063C51.3384 17.0079 51.3024 16.9128 51.2372 16.8391C51.1719 16.7654 51.082 16.7181 50.9842 16.7061Z"
    fill="black" />
  <path
    d="M82.7397 2.65247H80.1023C79.9951 2.65246 79.8923 2.69484 79.8162 2.77035C79.7402 2.84587 79.697 2.94839 79.6963 3.05556V3.95101C79.6963 4.00432 79.7068 4.05712 79.7272 4.10637C79.7476 4.15563 79.7775 4.20038 79.8152 4.23808C79.8529 4.27577 79.8977 4.30568 79.9469 4.32608C79.9962 4.34648 80.049 4.35698 80.1023 4.35698H81.5419C81.5785 4.35698 81.6137 4.37155 81.6396 4.39746C81.6655 4.42338 81.6801 4.45854 81.6801 4.49519V6.91088L80.0764 5.85419C80.0619 5.84481 80.0453 5.83952 80.0281 5.83888C80.0109 5.83823 79.9939 5.84226 79.9788 5.85054C79.9637 5.85881 79.9512 5.87102 79.9425 5.88587C79.9338 5.90071 79.9293 5.91762 79.9295 5.93482V7.64797C79.9298 7.67871 79.9376 7.70891 79.9521 7.73599C79.9667 7.76307 79.9876 7.78622 80.013 7.80345L81.6801 8.90044V10.7864L80.013 11.8862C79.9874 11.9033 79.9663 11.9264 79.9518 11.9535C79.9372 11.9806 79.9296 12.0109 79.9295 12.0417V13.7693C79.9298 13.7862 79.9347 13.8028 79.9436 13.8172C79.9525 13.8316 79.9651 13.8434 79.98 13.8514C79.995 13.8593 80.0119 13.8631 80.0288 13.8623C80.0457 13.8615 80.0621 13.8563 80.0764 13.847L81.6801 12.7932V17.1495C81.6801 17.1732 81.6707 17.1959 81.6539 17.2126C81.6372 17.2294 81.6145 17.2388 81.5908 17.2388H80.7098C80.6222 17.2381 80.5367 17.2658 80.4662 17.3176C80.3956 17.3695 80.3437 17.4429 80.3182 17.5267L80.085 18.3905C80.0747 18.4265 80.073 18.4644 80.0799 18.5012C80.0868 18.5381 80.1022 18.5728 80.1248 18.6027C80.1474 18.6325 80.1766 18.6567 80.2102 18.6734C80.2438 18.69 80.2807 18.6986 80.3182 18.6985H82.4949C82.667 18.6985 82.8321 18.6304 82.954 18.509C83.076 18.3876 83.1449 18.2228 83.1456 18.0507V3.06708C83.1468 3.01304 83.1371 2.95932 83.1172 2.90907C83.0974 2.85881 83.0676 2.81303 83.0298 2.77441C82.992 2.7358 82.9469 2.70511 82.897 2.68417C82.8472 2.66323 82.7937 2.65245 82.7397 2.65247Z"
    fill="black" />
  <path
    d="M86.7242 2.65245H84.0984C83.9912 2.65245 83.8884 2.69483 83.8123 2.77034C83.7363 2.84586 83.6931 2.94838 83.6924 3.05555V3.951C83.6924 4.05867 83.7352 4.16193 83.8113 4.23806C83.8874 4.3142 83.9907 4.35697 84.0984 4.35697H85.538C85.5744 4.35771 85.6091 4.3725 85.6349 4.39827C85.6607 4.42403 85.6754 4.45876 85.6762 4.49518V6.91087L84.0724 5.85418C84.058 5.8448 84.0414 5.83951 84.0242 5.83887C84.007 5.83822 83.99 5.84225 83.9749 5.85053C83.9598 5.8588 83.9473 5.87101 83.9386 5.88585C83.9299 5.9007 83.9254 5.91761 83.9256 5.93481V7.64796C83.9259 7.6787 83.9337 7.7089 83.9482 7.73598C83.9628 7.76306 83.9836 7.78621 84.0091 7.80344L85.6762 8.90043V10.7863L84.0091 11.8862C83.9835 11.9033 83.9624 11.9264 83.9479 11.9535C83.9333 11.9806 83.9257 12.0109 83.9256 12.0417V13.7693C83.9259 13.7862 83.9308 13.8027 83.9397 13.8172C83.9486 13.8316 83.9612 13.8434 83.9761 13.8513C83.9911 13.8593 84.008 13.863 84.0249 13.8623C84.0418 13.8615 84.0582 13.8562 84.0724 13.847L85.6762 12.7932V17.1495C85.6762 17.1615 85.6738 17.1733 85.6691 17.1843C85.6645 17.1954 85.6576 17.2053 85.649 17.2136C85.6404 17.222 85.6303 17.2285 85.6191 17.2328C85.6079 17.2371 85.596 17.2391 85.5841 17.2388H84.7203C84.6326 17.2376 84.5469 17.2651 84.4762 17.3171C84.4055 17.369 84.3537 17.4426 84.3287 17.5267L84.0955 18.3905C84.0857 18.4263 84.0844 18.4639 84.0916 18.5004C84.0987 18.5368 84.1142 18.5711 84.1367 18.6006C84.1593 18.6302 84.1883 18.6541 84.2216 18.6706C84.2549 18.687 84.2915 18.6956 84.3287 18.6957H86.5054C86.6772 18.6957 86.842 18.6274 86.9635 18.5059C87.085 18.3844 87.1532 18.2196 87.1532 18.0478V3.06707C87.1545 3.01104 87.1442 2.95535 87.1229 2.90351C87.1016 2.85166 87.0698 2.8048 87.0295 2.76585C86.9892 2.7269 86.9413 2.69672 86.8887 2.6772C86.8362 2.65769 86.7802 2.64926 86.7242 2.65245Z"
    fill="black" />
  <path
    d="M79.2376 6.81013H78.6617C78.8131 6.23659 78.9266 5.65373 79.0015 5.0653C79.0027 5.05225 79.0011 5.03908 78.9969 5.02668C78.9926 5.01428 78.9858 5.00294 78.9768 4.9934C78.9678 4.98386 78.9568 4.97635 78.9447 4.97137C78.9326 4.96639 78.9195 4.96406 78.9064 4.96453H77.8642C77.8194 4.96537 77.7763 4.98201 77.7426 5.01151C77.7089 5.04101 77.6867 5.08148 77.6799 5.12576C77.588 5.69332 77.466 6.25557 77.3142 6.81013H76.7614V4.43762C77.4958 4.42918 78.2281 4.35595 78.9496 4.2188C79.0403 4.20015 79.1217 4.15066 79.18 4.07873C79.2382 4.00681 79.2698 3.91691 79.2692 3.82434V2.75038C79.2701 2.71238 79.2619 2.67474 79.2452 2.64055C79.2286 2.60637 79.2041 2.57664 79.1737 2.55384C79.1433 2.53104 79.1079 2.51581 79.0704 2.50943C79.033 2.50305 78.9945 2.5057 78.9583 2.51716C78.5177 2.65249 77.6396 2.80509 76.1424 2.80509H72.9234C72.8157 2.80509 72.7124 2.84786 72.6363 2.92399C72.5601 3.00013 72.5174 3.10339 72.5174 3.21106V4.07484C72.5181 4.18201 72.5612 4.28453 72.6373 4.36004C72.7134 4.43556 72.8162 4.47793 72.9234 4.47793H75.2066V6.81013H74.6711C74.517 6.25596 74.394 5.69363 74.3025 5.12576C74.2964 5.08172 74.2747 5.0413 74.2415 5.01176C74.2083 4.98221 74.1656 4.96547 74.1211 4.96453H73.076C73.063 4.9645 73.0501 4.96714 73.0382 4.97227C73.0263 4.9774 73.0155 4.98492 73.0066 4.99436C72.9977 5.0038 72.9909 5.01497 72.9864 5.02717C72.982 5.03937 72.9801 5.05235 72.9809 5.0653C73.0558 5.65373 73.1693 6.23659 73.3207 6.81013H72.7448C72.6377 6.81012 72.5348 6.8525 72.4588 6.92802C72.3827 7.00353 72.3396 7.10605 72.3389 7.21322V7.96759C72.3389 8.0209 72.3494 8.07369 72.3698 8.12295C72.3902 8.1722 72.4201 8.21695 72.4578 8.25465C72.4955 8.29235 72.5402 8.32226 72.5895 8.34266C72.6387 8.36306 72.6915 8.37356 72.7448 8.37356H74.0376C73.7169 9.02006 73.1651 9.52256 72.4915 9.78152C72.4563 9.79483 72.4259 9.81843 72.4044 9.84924C72.3828 9.88006 72.371 9.91666 72.3705 9.95427V11.106C72.3705 11.1312 72.3764 11.1561 72.3875 11.1787C72.3987 11.2014 72.415 11.2211 72.435 11.2364C72.4551 11.2517 72.4784 11.2622 72.5032 11.2671C72.5279 11.2719 72.5535 11.271 72.5778 11.2643C73.1312 11.1121 73.6487 10.8512 74.1 10.4967C74.5514 10.1423 74.9276 9.70141 75.2066 9.19991V11.0455C75.2066 11.1527 75.249 11.2555 75.3245 11.3316C75.4 11.4076 75.5025 11.4507 75.6097 11.4515H76.3583C76.4116 11.4515 76.4644 11.441 76.5137 11.4206C76.5629 11.4002 76.6077 11.3703 76.6454 11.3326C76.6831 11.2949 76.713 11.2501 76.7334 11.2009C76.7538 11.1516 76.7643 11.0988 76.7643 11.0455V9.19991C77.0426 9.7025 77.4189 10.1442 77.8709 10.4988C78.3229 10.8534 78.8415 11.1137 79.3959 11.2643C79.4201 11.2705 79.4453 11.271 79.4697 11.2659C79.4941 11.2608 79.517 11.2502 79.5367 11.235C79.5564 11.2197 79.5724 11.2002 79.5834 11.1778C79.5944 11.1555 79.6002 11.1309 79.6003 11.106V9.95427C79.5999 9.91666 79.5881 9.88006 79.5665 9.84924C79.545 9.81843 79.5146 9.79483 79.4794 9.78152C78.8058 9.52256 78.254 9.02006 77.9333 8.37356H79.2376C79.3447 8.3728 79.4473 8.32969 79.5228 8.25364C79.5983 8.17759 79.6407 8.07476 79.6406 7.96759V7.21322C79.6406 7.10631 79.5982 7.00379 79.5226 6.92819C79.447 6.8526 79.3445 6.81013 79.2376 6.81013Z"
    fill="black" />
  <path
    d="M79.0938 11.6329H72.8659C72.7588 11.6329 72.6559 11.6752 72.5799 11.7508C72.5038 11.8263 72.4607 11.9288 72.46 12.036V18.2638C72.46 18.3715 72.5027 18.4747 72.5789 18.5509C72.655 18.627 72.7583 18.6698 72.8659 18.6698H79.0938C79.2009 18.669 79.3035 18.6259 79.379 18.5498C79.4545 18.4738 79.4969 18.371 79.4969 18.2638V12.036C79.4969 11.9291 79.4544 11.8265 79.3788 11.7509C79.3032 11.6753 79.2007 11.6329 79.0938 11.6329ZM78.086 13.1934V14.5352H76.6061V13.0552H77.9478C77.9842 13.056 78.019 13.0708 78.0447 13.0965C78.0705 13.1223 78.0853 13.157 78.086 13.1934ZM74.032 13.0552H75.3738V14.5352H73.8967V13.1934C73.8965 13.1591 73.9091 13.126 73.932 13.1005C73.9549 13.0749 73.9864 13.0588 74.0205 13.0552H74.032ZM73.8967 17.1063V15.7675H75.3738V17.2445H74.032C74.0131 17.2462 73.994 17.2438 73.976 17.2375C73.958 17.2313 73.9416 17.2213 73.9277 17.2083C73.9139 17.1952 73.9029 17.1794 73.8956 17.1618C73.8883 17.1443 73.8847 17.1254 73.8852 17.1063H73.8967ZM77.9478 17.2445H76.6061V15.7675H78.086V17.1063C78.0861 17.1255 78.0822 17.1445 78.0745 17.162C78.0669 17.1796 78.0556 17.1954 78.0416 17.2084C78.0275 17.2214 78.0109 17.2313 77.9927 17.2375C77.9746 17.2437 77.9554 17.2461 77.9363 17.2445H77.9478Z"
    fill="black" />
  <path
    d="M93.0879 2.46533H91.2107C90.9864 2.46533 90.8047 2.64709 90.8047 2.87131V3.8704C90.8047 4.09462 90.9864 4.27638 91.2107 4.27638H93.0879C93.3121 4.27638 93.4939 4.09462 93.4939 3.8704V2.87131C93.4939 2.64709 93.3121 2.46533 93.0879 2.46533Z"
    fill="black" />
  <path
    d="M105.1 14.3825H101.291V13.0206H104.841C104.948 13.0207 105.051 12.9783 105.127 12.9028C105.203 12.8272 105.246 12.7247 105.247 12.6175V11.6156C105.246 11.5084 105.203 11.4059 105.127 11.3304C105.051 11.2548 104.948 11.2125 104.841 11.2125H101.291V10.3228C101.291 10.2151 101.248 10.1119 101.172 10.0357C101.096 9.95958 100.992 9.91681 100.885 9.91681H99.6408C99.5336 9.91757 99.4311 9.96068 99.3556 10.0367C99.2801 10.1128 99.2377 10.2156 99.2377 10.3228V11.2125H95.6876C95.5804 11.2125 95.4776 11.2548 95.4015 11.3304C95.3255 11.4059 95.2824 11.5084 95.2816 11.6156V12.6175C95.2824 12.7247 95.3255 12.8272 95.4015 12.9028C95.4776 12.9783 95.5804 13.0207 95.6876 13.0206H99.2377V14.3825H95.4256C95.3184 14.3833 95.2159 14.4264 95.1403 14.5025C95.0648 14.5785 95.0225 14.6813 95.0225 14.7885V15.7876C95.0225 15.8948 95.0648 15.9976 95.1403 16.0737C95.2159 16.1497 95.3184 16.1928 95.4256 16.1936H99.2377V18.4768C99.2377 18.584 99.2801 18.6868 99.3556 18.7629C99.4311 18.8389 99.5336 18.882 99.6408 18.8828H100.885C100.992 18.8828 101.096 18.84 101.172 18.7639C101.248 18.6878 101.291 18.5845 101.291 18.4768V16.1936H105.1C105.208 16.1936 105.311 16.1508 105.387 16.0747C105.463 15.9985 105.506 15.8953 105.506 15.7876V14.7885C105.506 14.6808 105.463 14.5776 105.387 14.5014C105.311 14.4253 105.208 14.3825 105.1 14.3825Z"
    fill="black" />
  <path
    d="M94.919 17.138C94.8935 17.0542 94.8417 16.9809 94.7711 16.929C94.7005 16.8771 94.615 16.8494 94.5274 16.8501H93.5111C93.4874 16.8501 93.4647 16.8407 93.4479 16.824C93.4312 16.8072 93.4218 16.7845 93.4218 16.7608V5.38779C93.4218 5.28012 93.379 5.17685 93.3029 5.10072C93.2268 5.02458 93.1235 4.98181 93.0158 4.98181H90.3669C90.3136 4.98181 90.2608 4.99231 90.2116 5.01271C90.1623 5.03312 90.1175 5.06302 90.0798 5.10072C90.0422 5.13842 90.0122 5.18317 89.9918 5.23243C89.9714 5.28168 89.9609 5.33447 89.9609 5.38779V6.25156C89.9609 6.30488 89.9714 6.35767 89.9918 6.40692C90.0122 6.45618 90.0422 6.50093 90.0798 6.53863C90.1175 6.57633 90.1623 6.60623 90.2116 6.62664C90.2608 6.64704 90.3136 6.65754 90.3669 6.65754H91.3747C91.3929 6.65715 91.4111 6.66045 91.428 6.66726C91.445 6.67406 91.4603 6.68423 91.4733 6.69714C91.4862 6.71005 91.4963 6.72545 91.5031 6.74239C91.5099 6.75934 91.5133 6.77748 91.5129 6.79574V17.8694C91.5129 18.0412 91.5811 18.2059 91.7026 18.3274C91.8241 18.4489 91.9889 18.5172 92.1607 18.5172H94.9824C95.0198 18.5173 95.0568 18.5087 95.0904 18.492C95.1239 18.4754 95.1532 18.4512 95.1758 18.4213C95.1984 18.3914 95.2138 18.3567 95.2207 18.3199C95.2276 18.2831 95.2258 18.2451 95.2156 18.2091L94.919 17.138Z"
    fill="black" />
  <path
    d="M100.289 6.83313C99.3494 6.42142 98.483 5.86039 97.7231 5.1718C97.6896 5.14038 97.6453 5.12289 97.5993 5.12285H95.6875C95.6542 5.12333 95.6217 5.1328 95.5934 5.15028C95.5651 5.16775 95.542 5.19256 95.5266 5.22209C95.5113 5.25162 95.5042 5.28475 95.5062 5.31797C95.5081 5.35119 95.5191 5.38327 95.5378 5.41078C96.2283 6.2701 97.0621 7.00359 98.0024 7.57886C97.3136 7.73096 96.6136 7.82725 95.9092 7.86678C95.8051 7.87121 95.7066 7.91554 95.6342 7.99059C95.5619 8.06563 95.5212 8.16563 95.5205 8.26988V9.24306C95.5205 9.29736 95.5314 9.35111 95.5525 9.40113C95.5736 9.45115 95.6045 9.49643 95.6435 9.53428C95.6824 9.57214 95.7285 9.60179 95.7791 9.62151C95.8297 9.64122 95.8837 9.65058 95.938 9.64904C97.484 9.59511 99.0125 9.30378 100.47 8.78526C101.792 9.27971 103.179 9.57659 104.587 9.66631C104.642 9.66866 104.696 9.65987 104.748 9.64048C104.799 9.6211 104.845 9.59152 104.885 9.55354C104.924 9.51557 104.955 9.46999 104.976 9.41959C104.997 9.36918 105.008 9.315 105.008 9.26034V8.29579C105.007 8.18934 104.965 8.08736 104.89 8.01155C104.815 7.93573 104.714 7.89206 104.607 7.88982C103.975 7.86367 103.347 7.77884 102.73 7.63644C103.61 7.09577 104.374 6.38515 104.976 5.5461C104.996 5.51426 105.007 5.47735 105.008 5.43957V2.92598C105.007 2.81881 104.964 2.71629 104.888 2.64078C104.812 2.56526 104.709 2.52289 104.602 2.52289H95.938C95.8311 2.52289 95.7286 2.56536 95.653 2.64095C95.5774 2.71655 95.5349 2.81907 95.5349 2.92598V3.95964C95.5349 4.06681 95.5773 4.16964 95.6528 4.24569C95.7283 4.32174 95.8308 4.36485 95.938 4.36561H103.505C102.894 5.24666 101.786 6.15651 100.289 6.83313Z"
    fill="black" />
  <path
    d="M5.11764 4.96739L0.651913 12.7011C0.224909 13.4407 7.36981e-05 14.2796 1.81147e-08 15.1336C-7.36619e-05 15.9876 0.224619 16.8266 0.651496 17.5663C1.07837 18.3059 1.6924 18.9202 2.43188 19.3474C3.17136 19.7746 4.01025 19.9997 4.86426 20H20.1243L11.4376 4.96739C11.1175 4.41248 10.6569 3.95165 10.1022 3.63125C9.54752 3.31084 8.91821 3.14215 8.27761 3.14215C7.63701 3.14215 7.00771 3.31084 6.453 3.63125C5.89828 3.95165 5.43772 4.41248 5.11764 4.96739Z"
    fill="url(#paint0_linear_11109_47848)" />
  <path
    d="M5.11764 4.96739L0.651913 12.7011C0.224909 13.4407 7.36981e-05 14.2796 1.81147e-08 15.1336C-7.36619e-05 15.9876 0.224619 16.8266 0.651496 17.5663C1.07837 18.3059 1.6924 18.9202 2.43188 19.3474C3.17136 19.7746 4.01025 19.9997 4.86426 20H20.1243L11.4376 4.96739C11.1175 4.41248 10.6569 3.95165 10.1022 3.63125C9.54752 3.31084 8.91821 3.14215 8.27761 3.14215C7.63701 3.14215 7.00771 3.31084 6.453 3.63125C5.89828 3.95165 5.43772 4.41248 5.11764 4.96739Z"
    fill="url(#paint1_linear_11109_47848)" />
  <path
    d="M12.5283 10.2652V9.68933C12.5303 9.64908 12.5239 9.60885 12.5095 9.57124C12.495 9.53362 12.4728 9.49946 12.4443 9.47096C12.4158 9.44246 12.3816 9.42027 12.344 9.40581C12.3064 9.39135 12.2662 9.38494 12.2259 9.38701H9.14801V8.56642C9.14429 8.48826 9.11041 8.41459 9.05349 8.36089C8.99657 8.3072 8.92105 8.27766 8.84281 8.2785H8.26696C8.22795 8.27654 8.18896 8.28254 8.15235 8.29614C8.11574 8.30973 8.08227 8.33063 8.05399 8.35757C8.02571 8.3845 8.00321 8.4169 7.98785 8.45281C7.97249 8.48871 7.96459 8.52737 7.96464 8.56642V9.38413H4.8752C4.83615 9.38408 4.79749 9.39198 4.76159 9.40734C4.72568 9.4227 4.69328 9.44521 4.66634 9.47349C4.63941 9.50177 4.61851 9.53523 4.60492 9.57184C4.59133 9.60845 4.58532 9.64745 4.58727 9.68645V10.2623C4.58644 10.3405 4.61598 10.4161 4.66967 10.473C4.72337 10.5299 4.79704 10.5638 4.8752 10.5675H5.96068C6.27228 11.717 6.85592 12.7747 7.66232 13.6512C6.8836 14.2396 6.00604 14.6842 5.07099 14.9641C5.03228 14.9736 4.99596 14.991 4.96433 15.0153C4.9327 15.0395 4.90645 15.07 4.88723 15.105C4.86802 15.1399 4.85626 15.1784 4.8527 15.2181C4.84914 15.2578 4.85386 15.2978 4.86656 15.3355L5.02492 15.9114C5.03389 15.9514 5.0513 15.989 5.07597 16.0217C5.10064 16.0544 5.13201 16.0815 5.16799 16.1011C5.20397 16.1208 5.24372 16.1325 5.28459 16.1355C5.32546 16.1385 5.36651 16.1328 5.40499 16.1187C6.55009 15.7806 7.61948 15.2253 8.55488 14.4833C9.49134 15.2254 10.5617 15.7806 11.7077 16.1187C11.7462 16.1306 11.7868 16.1346 11.8269 16.1306C11.8671 16.1265 11.906 16.1145 11.9414 16.0952C11.9768 16.0759 12.008 16.0496 12.0331 16.0181C12.0583 15.9865 12.0768 15.9502 12.0877 15.9114L12.2461 15.3355C12.2667 15.2588 12.2565 15.1771 12.2178 15.1078C12.1791 15.0384 12.1149 14.9869 12.0388 14.9641C11.104 14.6836 10.2265 14.239 9.44745 13.6512C10.2549 12.7754 10.8387 11.7175 11.1491 10.5675H12.2375C12.3156 10.5645 12.3896 10.5314 12.4438 10.475C12.498 10.4186 12.5283 10.3434 12.5283 10.2652ZM8.54913 12.8565C7.94489 12.201 7.4866 11.4247 7.20452 10.579H9.89374C9.61401 11.4258 9.15544 12.2025 8.54913 12.8565Z"
    fill="white" />
  <path
    d="M29.1388 12.7011L22.9772 2.0248C22.6209 1.40906 22.1089 0.897859 21.4926 0.54247C20.8763 0.18708 20.1774 0 19.466 0C18.7546 0 18.0557 0.18708 17.4394 0.54247C16.8231 0.897859 16.3111 1.40906 15.9547 2.0248L7.60491 16.4988C5.56352 20.0316 3.08448 19.6286 2.66699 19.4846C3.34682 19.8259 4.09742 20.0024 4.8581 20H24.9323C25.7858 19.9987 26.6239 19.7729 27.3626 19.3453C28.1013 18.9177 28.7145 18.3033 29.1407 17.5638C29.5669 16.8243 29.7911 15.9857 29.7908 15.1322C29.7904 14.2787 29.5656 13.4402 29.1388 12.7011Z"
    fill="url(#paint2_linear_11109_47848)" />
  <path
    d="M22.8046 15.8538H23.8958C23.9414 15.8538 23.9862 15.8422 24.0261 15.8203C24.0661 15.7983 24.0998 15.7666 24.1242 15.7281C24.1486 15.6897 24.1629 15.6456 24.1658 15.6002C24.1686 15.5547 24.16 15.5092 24.1406 15.468L20.2133 7.1815C20.165 7.07878 20.0884 6.99197 19.9926 6.93127C19.8967 6.87058 19.7854 6.83852 19.672 6.83887H19.0443C18.9308 6.83852 18.8196 6.87058 18.7237 6.93127C18.6278 6.99197 18.5512 7.07878 18.503 7.1815L14.5843 15.468C14.5649 15.5092 14.5563 15.5547 14.5591 15.6002C14.562 15.6456 14.5763 15.6897 14.6007 15.7281C14.6251 15.7666 14.6588 15.7983 14.6988 15.8203C14.7387 15.8422 14.7835 15.8538 14.8291 15.8538H15.9203C15.9712 15.8519 16.0207 15.8364 16.0637 15.8091C16.1067 15.7818 16.1416 15.7436 16.165 15.6983L17.1267 13.6598H21.5895L22.5512 15.6983C22.5753 15.7448 22.6116 15.7839 22.6563 15.8113C22.7009 15.8387 22.7522 15.8534 22.8046 15.8538ZM17.763 12.3095L19.3495 8.94072L20.9417 12.3095H17.763Z"
    fill="white" />
  <defs>
    <linearGradient id="paint0_linear_11109_47848" x1="6.22903" y1="21.7016" x2="20.8499" y2="0.573642"
      gradientUnits="userSpaceOnUse">
      <stop stop-color="#00DEEC" />
      <stop offset="1" stop-color="#00FFBE" />
    </linearGradient>
    <linearGradient id="paint1_linear_11109_47848" x1="7.84429" y1="22.0874" x2="14.9791" y2="5.85419"
      gradientUnits="userSpaceOnUse">
      <stop stop-color="#00DEEC" />
      <stop offset="1" stop-color="#00F3CE" />
    </linearGradient>
    <linearGradient id="paint2_linear_11109_47848" x1="11.3767" y1="25.0963" x2="35.8533" y2="-10.2782"
      gradientUnits="userSpaceOnUse">
      <stop stop-color="#2C55FF" />
      <stop offset="0.21" stop-color="#2E51FF" />
      <stop offset="0.43" stop-color="#3444FF" />
      <stop offset="0.65" stop-color="#3F30FF" />
      <stop offset="0.88" stop-color="#4D13FF" />
      <stop offset="1" stop-color="#5700FF" />
    </linearGradient>
  </defs>
</svg>
