<?xml version="1.0" standalone="no"?><!DOCTYPE svg PUBLIC "-//W3C//DTD SVG 1.1//EN" "http://www.w3.org/Graphics/SVG/1.1/DTD/svg11.dtd"><svg t="1739280798641" class="icon" viewBox="0 0 1024 1024" version="1.1" xmlns="http://www.w3.org/2000/svg" p-id="16084" xmlns:xlink="http://www.w3.org/1999/xlink" width="128" height="128"><path d="M602.017775 542.093289c0-49.614988-40.3608-89.975788-89.980948-89.975787-49.624019 0-89.988689 40.3608-89.988689 89.975787 0 49.620148 40.36725 89.982238 89.988689 89.982238 49.617568 0 89.980948-40.36209 89.980948-89.982238zM1002.088204 409.762142l-50.205873-14.118023 32.334827-40.950394c7.867285-9.954735 9.069698-24.338527 1.773945-34.7203-49.331157-70.227585-123.341438-102.288902-204.877117-84.426887-7.295753 1.601066-13.768395 6.163008-18.160037 12.202163L622.33751 441.315143c7.524108 8.228525 13.938693 17.320155 19.501786 27.062017l117.688036-38.235936c15.761664-5.155407 32.628979 3.516927 37.781806 19.27343 5.129604 15.735861-3.516927 32.663813-19.27343 37.790837l-117.707388 38.243677c0.628299 5.530838 1.679765 10.941694 1.679764 16.646701 0 5.695977-1.050176 11.108122-1.679764 16.646702l227.715209 73.983188c7.103521 2.311934 15.023703 2.194531 21.866615-0.793437 76.557021-33.499825 115.334817-109.327916 114.045965-195.075909-0.198682-12.705318-9.630909-23.658623-21.867905-27.094271zM720.461834 191.529476C712.274594 107.458668 655.370304 26.157795 573.116016 1.117431c-12.062827-3.673034-25.144866 2.024233-32.141306 12.514376L512.026506 57.037342l-28.937883-43.405535c-6.992569-10.494014-20.079769-16.187411-32.152917-12.514376-82.243967 25.040364-139.163738 106.348979-147.335497 190.427527-0.719899 7.422186 1.616548 14.90759 5.997869 20.941584L450.117756 405.886556c10.144386-4.63419 20.719679-8.434948 31.916821-10.718499v-123.006001c0-16.587355 13.414896-29.99967 29.991929-29.99967s29.989349 13.416186 29.989349 29.99967v123.006001c11.197142 2.283551 21.777596 6.084309 31.915531 10.718499l140.517097-193.407755c4.396804-6.036574 6.731961-13.525848 6.013351-20.949325zM0.032395 436.862864c-1.292722 85.741542 37.563772 161.574794 114.105312 195.075908 6.844203 2.989259 14.757933 3.107952 21.862745 0.793438l227.738432-73.99351c-0.617978-5.535999-1.679765-10.939113-1.679765-16.646701 0-5.702427 1.061787-11.108122 1.679765-16.646701L246.030206 487.204201c-15.757793-5.125734-24.397874-22.054976-19.27343-37.781806 5.155407-15.757793 22.00079-24.397874 37.780516-19.27343l117.689326 38.235936c5.560512-9.741862 11.978968-18.846393 19.510816-27.069758L261.102934 247.761602c-4.390353-6.048185-10.866865-10.607547-18.165198-12.209903-81.614378-17.845243-155.607887 14.192851-204.946785 84.416566-7.291882 10.389513-6.085599 24.772015 1.773945 34.734491l30.336397 40.942654-48.207443 14.118023C9.658144 413.19779 0.219466 424.151095 0.032395 436.862864zM886.752097 703.287491c-3.781406-6.437808-10.117293-11.193271-17.219525-13.498755l-227.690696-73.976738c-5.560512 9.741862-11.994449 18.837362-19.510816 27.063307l72.628539 99.970517c9.757343 13.422637 6.770665 32.164528-6.621008 41.890909-13.469082 9.757343-32.195492 6.742282-41.883168-6.624879l-72.512426-99.81054c-10.150837 4.63677-20.720969 8.445269-31.912951 10.728821v242.288652c0 7.471212 2.553191 14.963066 7.512497 20.541639 55.487714 62.419646 142.898699 88.324406 224.17764 60.587645 12.039604-4.109102 19.540489-16.476402 19.020562-29.18043l-2.133895-54.193701 48.972498 18.157457c11.917041 4.421316 25.99507 1.121133 33.619808-9.056796 51.486984-68.608457 55.789607-162.778496 13.552941-234.887108zM401.736144 642.875305c-7.524108-8.228525-13.946434-17.321445-19.510816-27.060726l-227.694567 73.974157c-7.09191 2.302903-13.435538 7.054496-17.210494 13.492304-42.253438 72.117643-37.939203 166.285102 13.546491 234.90388 7.629899 10.172769 21.704057 13.476822 33.623678 9.056796l48.975078-18.157457-2.137766 54.191121c-0.526378 12.680805 6.99644 25.064877 19.010242 29.172689 22.72714 7.771815 45.99485 11.539029 68.893578 11.53903 59.075598-0.030963 115.439319-27.490344 155.366631-72.693047 4.9077-5.560512 7.440248-13.00334 7.440248-20.416496V689.028842c-11.197142-2.283551-21.768565-6.09334-31.903919-10.72753l-72.516297 99.81054c-9.648971 13.310394-28.36119 16.428667-41.893489 6.624879-13.383932-9.72638-16.36545-28.468272-6.615847-41.890909l72.627249-99.970517z" fill="#D15380" p-id="16085"></path></svg>